<?xml version="1.0" encoding="UTF-8" standalone="no"?><!DOCTYPE svg PUBLIC "-//W3C//DTD SVG 1.1//EN" "http://www.w3.org/Graphics/SVG/1.1/DTD/svg11.dtd"><svg width="100%" height="100%" viewBox="0 0 730 730" version="1.1" xmlns="http://www.w3.org/2000/svg" xmlns:xlink="http://www.w3.org/1999/xlink" xml:space="preserve" xmlns:serif="http://www.serif.com/" style="fill-rule:evenodd;clip-rule:evenodd;stroke-linecap:round;stroke-linejoin:round;stroke-miterlimit:1.5;"><path d="M0.006,310.851c0.967,-50.795 125.257,-91.935 278.209,-91.935c153.55,0 278.214,41.463 278.214,92.533l0,26.438c95.337,-0 172.738,66.932 172.738,149.373c-0,82.121 -76.799,148.852 -171.622,149.371l-1.116,0.003c0,51.07 -124.664,92.533 -278.214,92.533c-153.551,-0 -278.215,-41.463 -278.215,-92.533l0,-325.185l0.006,-0.598Zm556.423,64.049c71.713,-0 129.935,50.347 129.935,112.36c0,62.014 -58.222,112.361 -129.935,112.361l0,-224.721Zm-278.214,-134.834c136.677,0 247.641,31.986 247.641,71.383c0,39.397 -110.964,71.382 -247.641,71.382c-136.678,-0 -247.642,-31.985 -247.642,-71.382c0,-39.397 110.964,-71.383 247.642,-71.383Z" style="fill:#fff;stroke:#fff;stroke-width:4.17px;"/><path d="M189.553,201.732c-0,-0 -31.149,-34.796 -24.459,-52.876c16.306,-44.063 44.841,-41.419 48.917,-84.601c1.633,-17.301 -24.458,-47.588 -24.458,-47.588l94.891,1.318c-0,-0 38.046,28.463 38.038,76.821c-0.011,79.165 -45.332,37.922 -75.883,143.485c-7.627,26.352 39.327,77.467 39.327,77.467l87.351,0.998c-0,0 -18.435,-29.971 -16.547,-45.921c5.131,-43.334 44.421,-48.691 47.331,-87.183c1.725,-22.804 -24.627,-48.25 -24.627,-48.25" style="fill:none;stroke:#fff;stroke-width:31.48px;"/></svg>